<?xml version="1.0" encoding="UTF-8"?>
<svg id="Layer_1" xmlns="http://www.w3.org/2000/svg" version="1.1" viewBox="0 0 566.93 566.93">
  <!-- Generator: Adobe Illustrator 30.3.0, SVG Export Plug-In . SVG Version: 2.1.3 Build 182)  -->
  <defs>
    <style>
      .st0 {
        fill: #fff;
      }
    </style>
  </defs>
  <path class="st0" d="M490.93,273.98c5.82,27.37,6.71,54.62,3.25,80.87-12.8,97.75-85.67,181.33-187.59,202.99-101.93,21.67-202.48-25.05-253.98-109.13-13.83-22.57-24.1-47.83-29.92-75.2-5.15-24.23-6.44-48.38-4.27-71.82.49-5.33,4.33-9.75,9.56-10.86l424.47-90.22c5.23-1.11,10.54,1.37,13.15,6.03,11.52,20.53,20.16,43.11,25.31,67.35Z"/>
  <g>
    <path class="st0" d="M534.51,130.11c2.92,6.95-1.34,14.85-8.71,16.42L95.38,238.01c-10.15,2.16-20.18-4.32-22.35-14.51-1.07-5.05.04-10.12,2.64-14.13,2.64-4.07,6.78-7.09,11.88-8.17l94.51-20.09c1.35-.29,2.69-.43,4.01-.4.02-.14.07-.33.13-.48l36.3-7.71c5.1-1.08,9.28-4.11,11.88-8.17,2.65-4.02,3.72-9.08,2.63-14.18-2.16-10.15-12.14-16.64-22.34-14.47l-35.06,7.45c-10.56,2.24-21.7-4.42-23.51-15.06-.82-4.8.27-9.55,2.78-13.41,2.6-4.06,6.74-7.08,11.84-8.16l118.82-25.26c5.05-1.07,9.24-4.1,11.88-8.17,2.65-4.02,3.73-9.04,2.64-14.13-2.17-10.2-12.2-16.67-22.35-14.51l-47.09,10.01c-10.6,2.25-21.68-4.47-23.43-15.17-.79-4.79.31-9.49,2.8-13.28,2.6-4.06,6.74-7.08,11.84-8.16l45.73-9.72c2.53-.54,5.02-1.02,7.56-1.52l.13-.03c112.33-20.66,215.78,29.73,255.26,123.54Z"/>
    <rect class="st0" x="104.24" y="117.07" width="37.65" height="37.65" rx="18.83" ry="18.83" transform="translate(-25.57 28.56) rotate(-12)"/>
  </g>
</svg>